HIERARCHY
ROOT hip
{
  OFFSET 0 0 0
  CHANNELS 6 Xposition Yposition Zposition Zrotation Yrotation Xrotation
  JOINT abdomen
  {
    OFFSET 0 20.6881 -0.73152
    CHANNELS 3 Zrotation Xrotation Yrotation
    JOINT chest
    {
      OFFSET 0 11.7043 -0.48768
      CHANNELS 3 Zrotation Xrotation Yrotation
      JOINT neck
      {
        OFFSET 0 22.1894 -2.19456
        CHANNELS 3 Zrotation Xrotation Yrotation
        JOINT head
        {
          OFFSET -0.24384 7.07133 1.2192
          CHANNELS 3 Zrotation Xrotation Yrotation
          JOINT leftEye
          {
            OFFSET 4.14528 8.04674 8.04672
            CHANNELS 3 Zrotation Xrotation Yrotation
            End Site
            {
              OFFSET 1 0 0
            }
          }
          JOINT rightEye
          {
            OFFSET -3.6576 8.04674 8.04672
            CHANNELS 3 Zrotation Xrotation Yrotation
            End Site
            {
              OFFSET 1 0 0
            }
          }
        }
      }
      JOINT rCollar
      {
        OFFSET -2.68224 19.2634 -4.8768
        CHANNELS 3 Zrotation Xrotation Yrotation
        JOINT rShldr
        {
          OFFSET -8.77824 -1.95073 1.46304
          CHANNELS 3 Zrotation Xrotation Yrotation
          JOINT rForeArm
          {
            OFFSET -28.1742 -1.7115 0.48768
            CHANNELS 3 Zrotation Xrotation Yrotation
            JOINT rHand
            {
              OFFSET -22.5879 0.773209 7.07136
              CHANNELS 3 Zrotation Xrotation Yrotation
              JOINT rThumb1
              {
                OFFSET -1.2192 -0.487915 3.41376
                CHANNELS 3 Zrotation Xrotation Yrotation
                JOINT rThumb2
                {
                  OFFSET -3.37035 -0.52449 3.41376
                  CHANNELS 3 Zrotation Xrotation Yrotation
                  End Site
                  {
                    OFFSET -1.78271 -1.18214 1.43049
                  }
                }
              }
              JOINT rIndex1
              {
                OFFSET -7.75947 0.938293 5.60832
                CHANNELS 3 Zrotation Xrotation Yrotation
                JOINT rIndex2
                {
                  OFFSET -2.54057 -0.884171 1.56538
                  CHANNELS 3 Zrotation Xrotation Yrotation
                  End Site
                  {
                    OFFSET -1.62519 -0.234802 1.16502
                  }
                }
              }
              JOINT rMid1
              {
                OFFSET -8.24714 1.18213 3.41376
                CHANNELS 3 Zrotation Xrotation Yrotation
                JOINT rMid2
                {
                  OFFSET -3.10165 -0.590103 1.0647
                  CHANNELS 3 Zrotation Xrotation Yrotation
                  End Site
                  {
                    OFFSET -2.48547 -0.328903 0.83742
                  }
                }
              }
              JOINT rRing1
              {
                OFFSET -8.82822 0.546677 1.51678
                CHANNELS 3 Zrotation Xrotation Yrotation
                JOINT rRing2
                {
                  OFFSET -2.60934 -0.819778 -0.0198488
                  CHANNELS 3 Zrotation Xrotation Yrotation
                  End Site
                  {
                    OFFSET -2.33842 -0.294052 0.168128
                  }
                }
              }
              JOINT rPinky1
              {
                OFFSET -8.27202 -0.0477905 -0.4584
                CHANNELS 3 Zrotation Xrotation Yrotation
                JOINT rPinky2
                {
                  OFFSET -1.82734 -0.647385 -0.700984
                  CHANNELS 3 Zrotation Xrotation Yrotation
                  End Site
                  {
                    OFFSET -1.69225 -0.51767 -0.607171
                  }
                }
              }
            }
          }
        }
      }
      JOINT lCollar
      {
        OFFSET 2.68224 19.2634 -4.8768
        CHANNELS 3 Zrotation Xrotation Yrotation
        JOINT lShldr
        {
          OFFSET 8.77824 -1.95073 1.46304
          CHANNELS 3 Zrotation Xrotation Yrotation
          JOINT lForeArm
          {
            OFFSET 28.1742 -1.7115 0.48768
            CHANNELS 3 Zrotation Xrotation Yrotation
            JOINT lHand
            {
              OFFSET 22.5879 0.773209 7.07136
              CHANNELS 3 Zrotation Xrotation Yrotation
              JOINT lThumb1
              {
                OFFSET 1.2192 -0.487915 3.41376
                CHANNELS 3 Zrotation Xrotation Yrotation
                JOINT lThumb2
                {
                  OFFSET 3.37035 -0.52449 3.41376
                  CHANNELS 3 Zrotation Xrotation Yrotation
                  End Site
                  {
                    OFFSET 1.78271 -1.18214 1.43049
                  }
                }
              }
              JOINT lIndex1
              {
                OFFSET 7.75947 0.938293 5.60832
                CHANNELS 3 Zrotation Xrotation Yrotation
                JOINT lIndex2
                {
                  OFFSET 2.54057 -0.884171 1.56538
                  CHANNELS 3 Zrotation Xrotation Yrotation
                  End Site
                  {
                    OFFSET 1.62519 -0.234802 1.16502
                  }
                }
              }
              JOINT lMid1
              {
                OFFSET 8.24714 1.18213 3.41376
                CHANNELS 3 Zrotation Xrotation Yrotation
                JOINT lMid2
                {
                  OFFSET 3.10165 -0.590103 1.0647
                  CHANNELS 3 Zrotation Xrotation Yrotation
                  End Site
                  {
                    OFFSET 2.48547 -0.328903 0.83742
                  }
                }
              }
              JOINT lRing1
              {
                OFFSET 8.82822 0.546677 1.51678
                CHANNELS 3 Zrotation Xrotation Yrotation
                JOINT lRing2
                {
                  OFFSET 2.60934 -0.819778 -0.0198488
                  CHANNELS 3 Zrotation Xrotation Yrotation
                  End Site
                  {
                    OFFSET 2.33842 -0.294052 0.168128
                  }
                }
              }
              JOINT lPinky1
              {
                OFFSET 8.27202 -0.0477905 -0.4584
                CHANNELS 3 Zrotation Xrotation Yrotation
                JOINT lPinky2
                {
                  OFFSET 1.82734 -0.647385 -0.700984
                  CHANNELS 3 Zrotation Xrotation Yrotation
                  End Site
                  {
                    OFFSET 1.69225 -0.51767 -0.607171
                  }
                }
              }
            }
          }
        }
      }
    }
  }
  JOINT rButtock
  {
    OFFSET -8.77824 4.35084 1.2192
    CHANNELS 3 Zrotation Xrotation Yrotation
    JOINT rThigh
    {
      OFFSET 0 -1.70687 -2.19456
      CHANNELS 3 Zrotation Xrotation Yrotation
      JOINT rShin
      {
        OFFSET 0 -36.8199 0.73152
        CHANNELS 3 Zrotation Xrotation Yrotation
        JOINT rFoot
        {
          OFFSET 0.73152 -45.1104 -5.12064
          CHANNELS 3 Zrotation Xrotation Yrotation
          End Site
          {
            OFFSET -1.1221 -3.69964 12.103
          }
        }
      }
    }
  }
  JOINT lButtock
  {
    OFFSET 8.77824 4.35084 1.2192
    CHANNELS 3 Zrotation Xrotation Yrotation
    JOINT lThigh
    {
      OFFSET 0 -1.70687 -2.19456
      CHANNELS 3 Zrotation Xrotation Yrotation
      JOINT lShin
      {
        OFFSET 0 -36.8199 0.73152
        CHANNELS 3 Zrotation Xrotation Yrotation
        JOINT lFoot
        {
          OFFSET -0.73152 -45.1104 -5.12064
          CHANNELS 3 Zrotation Xrotation Yrotation
          End Site
          {
            OFFSET 1.1221 -3.69964 12.103
          }
        }
      }
    }
  }
}
MOTION
Frames:	8
Frame Time:	0.03333
0.0 0.0 0.0 0.0 0.0 0.0 0.0 0.0 0.0 0.0 0.0 0.0 0.0 0.0 0.0 0.0 0.0 0.0 0.0 0.0 0.0 0.0 0.0 0.0 0.0 0.0 0.0 0.0 0.0 0.0 0.0 0.0 0.0 0.0 0.0 0.0 0.0 0.0 0.0 0.0 0.0 0.0 0.0 0.0 0.0 0.0 0.0 0.0 0.0 0.0 0.0 0.0 0.0 0.0 0.0 0.0 0.0 0.0 0.0 0.0 0.0 0.0 0.0 0.0 0.0 0.0 0.0 0.0 0.0 0.0 0.0 0.0 0.0 0.0 0.0 0.0 0.0 0.0 0.0 0.0 0.0 0.0 0.0 0.0 0.0 0.0 0.0 0.0 0.0 0.0 0.0 0.0 0.0 0.0 0.0 0.0 0.0 0.0 0.0 0.0 0.0 0.0 0.0 0.0 0.0 0.0 0.0 0.0 0.0 0.0 0.0 0.0 0.0 0.0 0.0 0.0 0.0 0.0 0.0 0.0 0.0 0.0 0.0 0.0 0.0 0.0 0.0 0.0 0.0 0.0 0.0 0.0
0.8796 62.2854 0.3276 -0.674837 66.518916 6.235589 -3.708006 14.870707 8.665009 3.630606 -10.64558 -9.02699 -15.150007 30.853202 -93.188713 44.827993 17.465158 56.366647 -0.000972 -0.0 0.001487 0.004476 -0.0 -0.001727 -7.541528 29.799852 8.897966 31.971957 20.796904 33.111418 -92.382684 -23.385667 20.847899 20.596365 -50.308706 9.960204 -177.077479 -14.677981 89.64224 -86.06711 11.871473 30.686854 34.951019 -55.804417 -1.81261 -69.771485 51.692699 57.905934 6.987409 -21.877549 -2.828176 18.087238 -42.601992 -0.0647 -145.122255 1.573565 -179.625212 -153.129074 -21.147923 -176.082032 -142.625693 4.450647 -139.532284 101.198316 85.186218 -62.016036 56.700603 -86.657792 78.464699 65.383165 -32.994462 85.41083 129.10644 17.923869 83.508376 -8.671286 -53.658279 1.371464 172.258992 -9.93994 -89.941876 -81.836684 -68.310883 -62.377769 83.721975 42.333569 -69.981631 149.679983 13.712168 -110.569872 142.31674 33.9731 -130.206753 1.442537 13.110569 -2.61248 0.040398 -2.6865 0.846321 -10.975237 -6.716124 0.893981 -7.549551 23.438948 -6.686999 -131.906098 86.794096 92.724054 179.998537 75.74997 0.001836 161.567319 13.922656 -125.488025 -49.28501 -33.575058 120.550267 28.047338 -5.156342 -4.242214 -179.996706 75.750765 -0.002891 -145.815551 52.683239 -4.926377 45.881143 56.877516 24.796123 22.10402 -47.4829 -50.875082
1.2584 62.270199999999996 0.5121 0.690334 64.540567 7.437662 -2.347582 10.307187 -140.83691 1.225234 6.315283 140.213102 -1.881323 37.743408 -179.745566 -3.175131 51.631259 150.458779 0.004904 0.0 0.004194 0.004897 -0.0 -0.000659 -142.125414 40.915552 146.487894 163.927639 3.590677 145.841667 161.945921 -21.832578 42.244051 177.639969 -0.327585 144.41803 -7.782859 7.462273 1.688975 -129.467558 -28.410011 111.71144 17.255693 -31.002315 -5.920935 -38.522734 45.674272 30.753246 -90.996462 60.594525 82.380736 -134.623981 47.654948 123.374016 -145.114473 -0.266034 -179.044683 -154.6898 -7.508901 -178.234146 -145.877759 14.333299 -142.445769 26.87773 66.146046 4.423065 16.613946 46.532233 -18.587163 101.056795 2.296671 -128.402941 -13.123165 -3.21767 138.240355 170.111522 10.802019 -140.3958 -7.354482 -7.344606 0.665781 33.268958 26.532727 -25.923012 164.160725 -39.928461 -122.506549 -6.689032 13.268196 7.031048 3.99853 10.850404 -2.467512 16.02187 40.02375 -12.828776 0.091206 7.297393 -2.302161 157.136406 -37.428795 -176.335805 68.512799 -51.797912 67.052604 -24.879023 65.304123 -7.352681 179.999101 75.750107 0.000637 159.96284 13.996655 84.979721 69.012759 10.043266 104.94374 -129.645205 22.966348 -171.469749 0.000386 -0.000465 0.000363 17.94086 -16.901377 92.70293 70.625384 11.063042 139.712342 177.216322 3.629364 -162.730629
1.5737 62.223600000000005 0.6964 1.539771 62.779217 8.267935 -4.65895 14.098284 8.251774 3.487134 -10.343913 -7.818019 6.731019 25.02447 83.614614 -39.169866 2.38082 -114.033512 0.001307 -0.0 -0.002108 -0.004155 -0.0 0.001044 -145.886077 -81.224405 -169.445392 83.267599 61.843128 -76.184246 -155.372667 -15.086348 58.610327 162.364093 -40.309304 138.518479 3.68119 -3.662517 -0.450301 -117.906763 -3.981791 106.739226 -152.100888 -18.547878 121.367041 -143.694725 18.887212 114.397777 -4.008468 10.876323 2.47395 -19.377811 43.891371 15.650425 -1.718353 -22.807378 -7.632306 8.670374 31.323222 4.547414 -168.727663 80.769482 -147.619713 16.371127 47.116191 7.198835 156.62552 -11.553662 -163.473696 52.454029 5.869742 5.24958 -5.579925 -5.49988 138.026433 172.727601 2.728993 -141.88148 13.268754 12.346197 -3.431343 167.040066 -66.955769 -103.12992 27.667892 30.804499 -20.304283 -10.383761 -3.783508 1.916197 -5.06439 -15.681112 2.28341 17.704775 41.921843 -14.149695 0.068368 6.582053 -2.074136 154.458089 15.696293 -169.681598 145.14776 11.976103 141.797878 154.523525 33.389724 145.572651 179.996842 75.749975 0.000816 160.758926 12.508556 133.015429 62.309534 -27.180232 159.192525 25.688916 73.114663 66.736147 179.977119 75.749974 0.016156 -149.526591 56.427328 -9.475705 38.350447 58.095992 48.465969 105.366882 -78.588366 14.840621
1.9004 62.153800000000004 0.8714 2.407442 61.133316 9.110898 -3.292615 9.395372 -143.4929 0.715114 6.209 143.366617 -14.440141 24.027709 -56.942553 39.493775 -7.068577 31.012106 -0.000255 0.0 -0.000254 -0.000206 -0.0 0.004663 -24.068912 54.18587 26.320597 -84.766915 37.888987 107.784432 -162.318393 -8.76914 -88.767486 -3.975281 6.696453 -0.811233 -168.269868 -5.949148 89.87832 -139.424335 7.765805 69.672496 -147.048499 -9.285743 119.472483 0.168925 19.108005 -5.434211 -161.951619 -10.666343 143.806284 -166.185169 -13.504929 143.65803 -0.002054 -0.210785 -0.065683 -139.083928 -81.995073 -161.430977 13.505113 46.400881 11.083448 -2.61055 -10.600815 -4.056102 -4.273427 -47.196485 9.160881 98.473966 -21.170078 141.367423 -21.260515 7.672834 143.233184 165.990537 20.54678 -137.792777 176.803876 -14.413213 -89.669766 -21.778106 -65.884257 -17.493852 11.564843 16.202005 -7.586171 0.203395 13.278675 -2.410457 160.042393 -4.731524 -142.940649 -12.982363 -28.948789 1.022199 145.089578 -2.020704 178.494698 -9.850648 -5.929919 9.769305 48.588752 -49.115671 47.327359 141.195099 -3.378754 138.848259 -0.001021 -0.000196 -0.001546 -36.053922 -58.40683 128.847142 26.512709 -56.159355 -94.609642 -81.508259 34.682437 11.808203 -179.993318 75.749838 -0.004445 -153.099015 56.378727 122.595616 60.337081 -45.456026 104.809105 166.142319 -0.144328 -176.583665
2.1286 62.083600000000004 1.0502 3.332228 59.573637 9.864347 -3.153675 9.622106 -123.335684 3.528553 5.445994 123.357578 -6.728649 36.95123 -154.51027 20.037693 47.52063 117.741957 0.001879 -0.0 -0.000467 -0.00378 -0.0 0.00467 -150.727599 19.575633 155.916402 147.29001 -29.050361 162.056573 -8.210456 -23.04014 85.54648 -4.960976 9.604396 -0.697922 -172.755762 -10.432465 89.928674 144.387518 -48.128549 98.316689 -148.332298 -11.60092 120.022335 -40.816781 53.135419 26.425923 -0.974094 2.790737 0.556286 -164.878028 -9.762487 143.807835 -145.097425 4.447618 179.473089 -150.852555 -34.527116 -173.203483 -152.455344 38.342421 -147.769529 -4.822962 -14.630568 -7.376802 156.39375 -9.757519 -163.118901 53.68676 4.685485 3.516047 -1.55231 -1.095676 138.437636 173.826179 -1.255669 -142.476718 -10.285963 -10.27278 0.665288 -45.277661 -82.106235 18.491767 -0.261839 -0.424943 0.146813 -128.669305 -60.663811 -69.824439 149.483489 21.999576 -136.038849 3.358921 17.61011 -3.745311 8.3e-05 -0.200029 0.062987 -2.722452 46.507996 -9.464896 -14.580374 50.602045 -11.687004 -13.895524 41.062015 -7.839372 -179.922836 75.75031 -0.060832 161.636838 13.103697 26.682954 24.964364 60.985243 -119.88458 14.045675 42.279027 82.497135 0.000135 0.000751 -1.1e-05 13.483283 -12.736147 50.617814 48.403686 32.582662 -50.283886 79.426561 -2.924155 -0.125727
2.5584 62.0371 1.2316 3.482421 58.006083 9.982598 -6.13344 12.924682 11.770472 3.231264 -10.313342 -10.485976 1.670211 35.89979 160.946585 -17.889099 46.538736 177.545121 0.002133 -0.0 -0.000971 0.001877 -0.0 -0.003806 1.308039 -8.686151 -1.829313 3.305837 74.646686 48.488507 -170.200096 74.200363 50.182412 171.3675 -20.317928 143.097796 14.968531 -14.871122 -0.353852 -151.931286 -73.38067 133.57259 66.866531 -72.242142 20.991865 -20.007585 42.255047 15.821663 23.566052 -60.889442 1.189316 -168.784351 -21.132426 144.200789 -0.014246 -1.200978 -0.376909 -156.343001 -43.786567 177.178648 -130.37699 -21.543181 -127.97353 -129.016553 -26.000211 -127.026534 1.955039 10.316557 -2.484446 -55.401653 47.163557 -25.696766 -36.534799 -3.421918 -117.076831 24.727425 33.730149 -7.108307 -44.149457 -37.647867 -9.165227 7.638859 -22.043542 22.942872 77.009486 43.078367 -63.946169 126.464219 37.767599 -96.003855 87.257194 60.900342 -78.783582 2.091893 14.967235 -2.901672 145.120835 0.870723 179.402445 -11.227947 15.21107 7.212786 133.302913 -16.680423 130.783798 126.454204 -29.351795 124.567927 0.000483 -0.000517 0.000137 -33.051868 -58.894308 -96.51956 -56.16654 20.239782 118.425938 40.331296 -35.737492 -33.995954 -179.965519 75.74923 -0.027961 -154.235014 61.674376 49.928434 53.626078 18.336401 -122.739874 150.925774 32.54834 -58.834615
2.9011 61.9636 1.4074 4.228586 56.557327 10.280495 -4.395535 8.663762 -134.304513 1.782535 5.881409 135.136623 -13.760555 32.038674 -106.909671 41.108481 24.438186 71.915321 0.004117 -0.0 -0.003129 -0.001338 0.0 -8.3e-05 -140.607546 43.345478 144.882151 63.500017 -62.24301 85.608666 -92.451403 -18.530444 11.683131 22.061508 -52.311377 11.037032 2.573461 -2.554449 -0.338643 -149.900379 -61.752586 122.409278 -144.025611 -4.003711 118.02135 17.95926 -16.823823 -10.585067 165.346709 -71.871371 131.458099 -4.625049 19.902277 4.281936 0.003675 0.40975 0.128427 -156.36898 -19.637755 174.157597 -158.455765 61.19214 -150.864693 13.389265 36.232719 5.840895 113.571796 63.355275 -117.077227 -173.877603 4.195263 -109.736684 170.204641 -82.009193 -46.235966 173.862528 -1.231704 -142.475619 -4.541807 -4.525361 0.5215 -118.030316 -85.403419 -47.767623 -60.370676 -70.495825 -15.637974 -4.345169 19.330707 0.559278 157.148463 3.727677 -141.356066 1.767977 13.618582 -2.784392 145.115227 -0.290676 179.037453 -12.164847 43.22214 4.053013 138.636151 -5.788106 135.840205 14.355944 -30.147955 16.704537 -179.996693 75.749065 -0.00292 162.311434 12.244425 -19.435534 -30.109512 57.023431 116.930629 -3.700711 -6.364031 -70.624277 -179.99378 75.749591 -0.007364 -154.627296 63.63163 83.592652 56.043081 -19.29834 -31.120886 41.04963 -48.785998 -30.13816
